Input #0, mov,mp4,m4a,3gp,3g2,mj2, from 'C:\Users\sulta\OneDrive - Invesense Asset Management Limited\Documents\remotion\benchmarks\.cache\source\whatsapp-video-2026-05-17-at-45110-am-102be52c.mp4':
  Metadata:
    major_brand     : mp42
    minor_version   : 0
    compatible_brands: mp42isom
  Duration: 00:01:19.17, start: 0.000000, bitrate: 870 kb/s
  Stream #0:0[0x1](und): Video: h264 (Baseline) (avc1 / 0x31637661), yuv420p(tv, bt709, progressive), 576x1024, 807 kb/s, 30 fps, 30 tbr, 600 tbn (default)
  Stream #0:1[0x2](und): Audio: aac (LC) (mp4a / 0x6134706D), 44100 Hz, stereo, fltp, 62 kb/s (default)
Stream mapping:
  Stream #0:0 -> #0:0 (h264 (native) -> wrapped_avframe (native))
Press [q] to stop, [?] for help
Output #0, null, to 'NUL':
  Metadata:
    major_brand     : mp42
    minor_version   : 0
    compatible_brands: mp42isom
    encoder         : Lavf62.12.101
  Stream #0:0(und): Video: wrapped_avframe, yuv420p(tv, bt709, progressive), 576x1024, q=2-31, 200 kb/s, 30 fps, 30 tbn (default)
    Metadata:
      encoder         : Lavc62.28.101 wrapped_avframe
[Parsed_scdet_0 @ 000001d1187f23c0] lavfi.scd.score: 59.342, lavfi.scd.time: 7.9
[Parsed_scdet_0 @ 000001d1187f23c0] lavfi.scd.score: 77.145, lavfi.scd.time: 12.5
[Parsed_scdet_0 @ 000001d1187f23c0] lavfi.scd.score: 71.643, lavfi.scd.time: 28.566667
[Parsed_scdet_0 @ 000001d1187f23c0] lavfi.scd.score: 64.708, lavfi.scd.time: 31.966667
[Parsed_scdet_0 @ 000001d1187f23c0] lavfi.scd.score: 65.452, lavfi.scd.time: 41.333333
[Parsed_scdet_0 @ 000001d1187f23c0] lavfi.scd.score: 57.719, lavfi.scd.time: 45.333333
[out#0/null @ 000001d1187f1c40] video:983KiB audio:0KiB subtitle:0KiB other streams:0KiB global headers:0KiB muxing overhead: unknown
frame= 2375 fps=0.0 q=-0.0 Lsize=N/A time=00:01:19.16 bitrate=N/A speed= 428x elapsed=0:00:00.18    
